<?xml version="1.0" standalone="no"?>
<!DOCTYPE svg PUBLIC "-//W3C//DTD SVG 1.1//EN" "http://www.w3.org/Graphics/SVG/1.1/DTD/svg11.dtd" >
<svg xmlns="http://www.w3.org/2000/svg">
<metadata></metadata>
<defs>
<font id="OswaldLight" horiz-adv-x="1116" >
<font-face units-per-em="2048" ascent="1638" descent="-410" />
<missing-glyph horiz-adv-x="334" />
<glyph horiz-adv-x="0" />
<glyph horiz-adv-x="2048" />
<glyph unicode="&#xd;" horiz-adv-x="629" />
<glyph unicode=" "  horiz-adv-x="334" />
<glyph unicode="&#x09;" horiz-adv-x="334" />
<glyph unicode="&#xa0;" horiz-adv-x="334" />
<glyph unicode="!" horiz-adv-x="434" d="M117 1719h194l-60 -1331h-54zM138 0v179h185v-179h-185z" />
<glyph unicode="&#x22;" horiz-adv-x="694" d="M102 1715h168l-51 -307h-67zM425 1715h168l-51 -307h-67z" />
<glyph unicode="#" horiz-adv-x="1020" d="M18 0l185 660h-155v125h190l67 239h-207v115h239l163 582h145l-163 -582h176l163 582h145l-163 -582h154v-115h-187l-67 -239h204v-125h-239l-185 -660h-144l185 660h-177l-185 -660h-144zM382 785h177l67 239h-177z" />
<glyph unicode="$" horiz-adv-x="948" d="M57 1236q0 158 108.5 255.5t280.5 102.5v153h88v-156q289 -36 357 -362q2 -9 4 -23l-128 -40q-14 125 -94 214.5t-191 89.5q-278 0 -278 -216q0 -117 141 -234l283 -225q215 -175 264 -299q22 -58 22 -119q0 -170 -105 -267t-275 -106v-142h-88v144q-109 12 -192 76 q-153 119 -191 363l134 39q16 -159 95 -257t208 -102q164 0 232 99q37 55 37 140q0 153 -235 336l-295 230q-182 148 -182 306z" />
<glyph unicode="%" horiz-adv-x="1257" d="M57 1187v234q0 324 226 324t226 -324v-234q0 -334 -226 -334t-226 334zM174 1190q0 -236 109 -236t109 236v228q0 226 -109 226t-109 -226v-228zM305 0l552 1721h124l-553 -1721h-123zM783 307v234q0 324 226 324t226 -324v-234q0 -334 -226 -334t-226 334zM900 310 q0 -236 109 -236t109 236v228q0 226 -109 226t-109 -226v-228z" />
<glyph unicode="&#x26;" d="M68 294.5q0 140.5 74.5 293t203.5 256.5q-206 341 -206 517t96 280t257 104t252 -89.5t91 -231t-84.5 -299t-253.5 -308.5l321 -493q149 198 149 429h128q0 -111 -55.5 -257t-150.5 -268q96 -106 204 -106v-137l-19 1q-151 9 -271 148q-170 -160 -361.5 -160t-283 90 t-91.5 230.5zM208 316q0 -102 57 -162t191 -60t279 135l-329 505q-85 -78 -141.5 -197t-56.5 -221zM292 1364q0 -185 150 -437q114 109 182 241.5t68 237.5q0 217 -195 217q-151 0 -195 -175q-10 -42 -10 -84z" />
<glyph unicode="'" horiz-adv-x="373" d="M102 1715h169l-51 -307h-67z" />
<glyph unicode="(" horiz-adv-x="535" d="M115 724v157q0 352 39 527t116 260q44 49 113.5 84t157.5 35v-132q-159 0 -216.5 -177.5t-57.5 -536.5v-75q0 -323 11 -394t23 -141.5t32.5 -109t48.5 -78.5q53 -75 159 -75v-132q-32 0 -61 4q-365 53 -365 784z" />
<glyph unicode=")" horiz-adv-x="545" d="M18 -64v132q106 0 159 74q28 40 48.5 79.5t32.5 108.5q26 154 30 264t4 204v105q0 317 -18 411q-35 190 -93.5 265.5t-162.5 75.5v132q426 0 426 -789v-157q0 -276 -11.5 -356.5t-26 -157t-34.5 -125.5q-58 -137 -128 -192q-99 -74 -226 -74z" />
<glyph unicode="*" horiz-adv-x="760" d="M55 1311l36 89l252 -119l-18 302h119l-20 -301l254 120l35 -90l-264 -102l174 -250l-89 -49l-150 252l-149 -252l-88 52l173 247z" />
<glyph unicode="+" horiz-adv-x="649" d="M82 576v115h192v192h121v-192h192v-115h-192v-192h-121v192h-192z" />
<glyph unicode="," horiz-adv-x="389" d="M111 0v179h185v-23q0 -182 -5.5 -214.5t-11.5 -67.5q-8 -44 -36 -83.5t-83 -46.5l-27 55q83 31 102 153q4 26 4 48h-128z" />
<glyph unicode="-" horiz-adv-x="532" d="M117 448v115h313v-115h-313z" />
<glyph unicode="." horiz-adv-x="397" d="M115 0v179h184v-179h-184z" />
<glyph unicode="/" horiz-adv-x="651" d="M-29 0l552 1721h145l-553 -1721h-144z" />
<glyph unicode="0" horiz-adv-x="1047" d="M117 499v721q0 403 247 498q71 27 162 27t162 -27q247 -95 247 -498v-721q0 -526 -409 -526t-409 526zM269 465q0 -370 257 -370t257 370v789q0 369 -257 369t-257 -369v-789z" />
<glyph unicode="1" horiz-adv-x="532" d="M41 1389v144q60 22 130 70.5t111 117.5h103v-1721h-152v1478q-101 -68 -192 -89z" />
<glyph unicode="2" horiz-adv-x="946" d="M72 0v128l462 697q142 217 175 333q17 60 17 114q0 351 -228 351q-190 0 -243 -174q-28 -92 -28 -233h-152v23q10 506 421 506q190 0 286 -125.5t96 -346.5q0 -105 -58.5 -236.5t-135.5 -243.5l-433 -671h606v-122h-785z" />
<glyph unicode="3" horiz-adv-x="946" d="M66 1292v25q0 177 92 302.5t315 125.5t318 -183q54 -103 54 -257.5t-66 -259.5t-169 -135q235 -94 235 -448q0 -489 -398 -489q-234 0 -327 181q-53 101 -53 241v26h142q4 -199 69 -266q58 -60 180 -60q116 0 175.5 74.5t59.5 289.5q0 273 -133 353q-51 30 -123 36v129 q144 6 200 81.5t56 250.5t-57 244.5t-174.5 69.5t-181 -78t-71.5 -253h-143z" />
<glyph unicode="4" horiz-adv-x="842" d="M16 509v105l397 1109h233v-1101h171v-113h-171v-509h-152v509h-478zM175 622h319l-1 974z" />
<glyph unicode="5" horiz-adv-x="918" d="M109 430l152 11q0 -209 57 -281q30 -37 69.5 -51t110.5 -14t121 38q104 79 104 380.5t-104 376.5q-50 37 -123.5 37t-141 -35t-113.5 -105h-122v934h668l-14 -122h-502v-655q99 105 246 105q270 0 338 -319q20 -93 20 -211q0 -242 -89 -387q-95 -159 -296 -159t-291 116 t-90 341z" />
<glyph unicode="6" horiz-adv-x="991" d="M121 490v766q0 489 388 489q277 0 350 -265q20 -73 20 -157v-26h-142q-4 199 -67 266q-55 60 -172 60q-111 0 -168 -74.5t-57 -289.5v-325q95 45 223 45q234 0 327.5 -140.5t93.5 -360.5t-96.5 -362.5t-305.5 -142.5t-301.5 132t-92.5 385zM273 501q0 -285 85 -359 q54 -47 151 -47q134 0 195 86t61 297t-59 295t-187 84q-70 0 -142.5 -12.5t-103.5 -33.5v-310z" />
<glyph unicode="7" horiz-adv-x="674" d="M-16 1585v136h646v-76l-333 -1645h-158l328 1585h-483z" />
<glyph unicode="8" horiz-adv-x="1008" d="M109 462q0 354 235 448q-103 30 -169 135t-66 281.5t94 297.5t304 121q299 0 375 -260q23 -76 23 -169q0 -166 -66 -271t-169 -135q235 -94 235 -448q0 -489 -398 -489t-398 489zM261 491q0 -141 15.5 -213t48 -111.5t76 -55.5t106.5 -16q123 0 184.5 74.5t61.5 268.5 t-56 294t-190 115q-134 -15 -190 -115t-56 -241zM261 1311q0 -174 54 -250t192 -84q138 8 192 84t54 250t-59 243t-187 69t-187 -69t-59 -243z" />
<glyph unicode="9" horiz-adv-x="981" d="M72 1240q0 220 96.5 362.5t305.5 142.5t301.5 -132t92.5 -385v-766q0 -489 -388 -489q-277 0 -350 265q-20 73 -20 157v26h142q4 -199 66 -266q57 -60 173 -60q111 0 168 74.5t57 289.5v325q-95 -45 -223 -45q-234 0 -327.5 140.5t-93.5 360.5zM224 1240q0 -211 59 -295 t187 -84q70 0 142.5 12.5t103.5 33.5v310q0 285 -85 359q-54 47 -151 47q-134 0 -195 -86t-61 -297z" />
<glyph unicode=":" horiz-adv-x="426" d="M125 275v179h185v-179h-185zM125 813v179h185v-179h-185z" />
<glyph unicode=";" horiz-adv-x="422" d="M125 256v179h184q0 -20 -1 -63.5t-1.5 -72t-2.5 -68.5t-6 -63.5t-10 -52.5q-11 -46 -37 -77.5t-78 -37.5l-26 55q59 22 82.5 83.5t23.5 117.5h-128zM125 813v179h184v-179h-184z" />
<glyph unicode="&#x3c;" horiz-adv-x="727" d="M76 494v215l569 398v-165l-477 -339l477 -342v-167z" />
<glyph unicode="=" horiz-adv-x="750" d="M127 255v115h505v-115h-505zM127 576v115h505v-115h-505z" />
<glyph unicode="&#x3e;" horiz-adv-x="727" d="M102 94v167l477 342q-105 74 -477 339v167l569 -400v-215z" />
<glyph unicode="?" horiz-adv-x="868" d="M33 1179v146q0 99 35 181t92 134q119 106 276.5 106t275 -108t117.5 -303.5t-98.5 -335.5t-296.5 -263v-284h-134v341q272 156 355 353q37 88 37 170q0 163 -75 235.5t-185.5 72.5t-186.5 -79.5t-77 -223.5l-1 -142h-134zM275 1v179h184v-179h-184z" />
<glyph unicode="@" horiz-adv-x="1434" d="M72 868q0 191 52 345t142 252q187 202 476.5 202t459 -202.5t169.5 -576.5q0 -267 -121 -380q-67 -62 -149.5 -62t-148 44t-88.5 113q-12 -56 -46 -92q-60 -64 -167 -64q-55 0 -98 30q-72 50 -102 159t-30 203q0 217 66 329t163 112t184 -76v70h152v-560q0 -153 104 -153 q129 0 129 320q0 446 -193 585q-113 80 -310 80t-332 -144q-160 -169 -160 -538q0 -171 33.5 -300t86 -204.5t128 -122t148.5 -62.5t184.5 -16t286.5 39l25 -118q-186 -40 -323 -40t-243 26q-225 56 -351.5 248.5t-126.5 553.5zM572 840q0 -279 115 -279q52 0 83.5 21 t63.5 62v477q-76 53 -128 53q-134 0 -134 -334z" />
<glyph unicode="A" horiz-adv-x="980" d="M51 0l340 1721h198l340 -1721h-154l-86 448h-397l-88 -448h-153zM310 549h360l-181 1014z" />
<glyph unicode="B" horiz-adv-x="1030" d="M146 0v1721h370q250 0 340 -190q49 -102 49 -228t-49.5 -228t-136.5 -142q167 -68 210 -301q11 -60 11 -134.5t-8 -143.5q-21 -166 -108.5 -260t-277.5 -94h-400zM298 116h272q218 0 218 394q0 200 -62 286q-52 69 -156 69h-272v-749zM298 982h244q153 0 190 187 q10 51 10 112q0 324 -246 324h-198v-623z" />
<glyph unicode="C" horiz-adv-x="1074" d="M119 499v721q0 525 437 525q404 0 404 -525v-70h-145v104q0 369 -259 369q-225 0 -271 -219q-14 -68 -14 -150v-789q0 -268 147 -343q55 -27 138 -27q259 0 259 370v118h145v-84q0 -526 -404 -526q-437 0 -437 526z" />
<glyph unicode="D" horiz-adv-x="1091" d="M146 0v1721h387q235 0 345 -151q94 -128 94 -362v-700q0 -508 -439 -508h-387zM298 122h235q287 0 287 352v768q0 357 -287 357h-235v-1477z" />
<glyph unicode="E" horiz-adv-x="807" d="M146 0v1721h600v-122h-448v-652h320v-115h-320v-710h448v-122h-600z" />
<glyph unicode="F" horiz-adv-x="712" d="M146 0v1721h600v-122h-448v-652h320v-115h-320v-832h-152z" />
<glyph unicode="G" horiz-adv-x="1117" d="M119 481v730q0 534 456 534q306 0 383 -289q30 -112 32 -285v-12h-152v13q0 210 -35 306q-54 145 -221.5 145t-239 -97t-71.5 -251v-860q0 -320 297 -320q270 0 270 320v291h-211v115h363v-821h-67l-45 168q-34 -87 -120.5 -141t-191.5 -54q-447 0 -447 508z" />
<glyph unicode="H" horiz-adv-x="1126" d="M146 0v1721h152v-779h530v779h152v-1721h-152v836h-530v-836h-152z" />
<glyph unicode="I" horiz-adv-x="444" d="M145 0v1721h152v-1721h-152z" />
<glyph unicode="J" horiz-adv-x="559" d="M12 0v115q145 0 172 12t44 29q23 24 31.5 80t8.5 174v1311h152v-1311q0 -242 -52.5 -312t-148.5 -88q-54 -10 -128 -10h-79z" />
<glyph unicode="K" horiz-adv-x="1010" d="M146 0v1721h152v-905l459 905h157l-356 -710l437 -1011h-161l-368 909l-168 -302v-607h-152z" />
<glyph unicode="L" horiz-adv-x="783" d="M146 0v1721h152v-1599h481v-122h-633z" />
<glyph unicode="M" horiz-adv-x="1330" d="M146 0v1721h187l332 -1486q61 292 162 714.5t170 771.5h187v-1721h-135v1377l-318 -1377h-132l-318 1376v-1376h-135z" />
<glyph unicode="N" horiz-adv-x="1083" d="M146 0v1721h117l545 -1363v1363h129v-1721h-114l-546 1334v-1334h-131z" />
<glyph unicode="O" d="M119 499v721q0 373 229 484q85 41 210 41q439 0 439 -525v-721q0 -526 -439 -526t-439 526zM271 465q0 -370 287 -370t287 370v789q0 369 -287 369t-287 -369v-789z" />
<glyph unicode="P" horiz-adv-x="1020" d="M146 0v1721h421q255 0 352 -193q55 -110 55 -270q0 -493 -408 -493h-268v-765h-152zM298 887l286 -1h3q126 0 180.5 89t54.5 273.5t-59 267.5t-179 83h-286v-712z" />
<glyph unicode="Q" horiz-adv-x="1123" d="M119 499v721q0 373 229 484q85 41 210 41q439 0 439 -525v-721q0 -360 -205 -474q59 -56 104 -85t108 -38v-114q-83 12 -156.5 63t-151.5 138q-61 -16 -138 -16q-439 0 -439 526zM271 465q0 -370 287 -370t287 370v789q0 369 -287 369t-287 -369v-789z" />
<glyph unicode="R" horiz-adv-x="1069" d="M146 0v1721h459q246 0 325 -185q44 -103 44 -260q0 -329 -240 -417l266 -859h-162l-251 840h-289v-840h-152zM298 962h306q131 0 174.5 93t43.5 249t-58.5 225.5t-159.5 69.5h-306v-637z" />
<glyph unicode="S" horiz-adv-x="987" d="M81 415l134 39q29 -247 177 -329q55 -30 130 -30q118 0 181.5 64t63.5 191t-131 285q-43 52 -100 112l-269 283q-88 92 -135 173.5t-47 168.5q0 171 111 272t285 101q342 0 409 -373l3 -16l-128 -40q-31 215 -178 284q-48 23 -106 23q-114 0 -181.5 -58t-67.5 -171 q0 -69 36 -134t105 -140l355 -387q88 -88 142 -197q42 -91 42 -181q0 -179 -112 -280.5t-293 -101.5t-289.5 125.5t-136.5 316.5z" />
<glyph unicode="T" horiz-adv-x="755" d="M-35 1599v122h825v-122h-338v-1599h-152v1599h-335z" />
<glyph unicode="U" horiz-adv-x="1138" d="M132 423v1298h152v-1333q0 -224 158 -275q55 -18 135 -18q150 0 214 73t64 220v1333h151v-1298q0 -450 -429 -450q-445 0 -445 450z" />
<glyph unicode="V" horiz-adv-x="971" d="M23 1721h164l305 -1541l292 1541h164l-356 -1721h-199z" />
<glyph unicode="W" horiz-adv-x="1436" d="M33 1721h142l235 -1472l222 1472h193l203 -1472l234 1472h141l-286 -1721h-175l-215 1520l-232 -1520h-174z" />
<glyph unicode="X" horiz-adv-x="991" d="M51 0l367 866l-367 855h143l302 -723l293 723h156l-367 -871l367 -850h-146l-298 717l-293 -717h-157z" />
<glyph unicode="Y" horiz-adv-x="888" d="M-2 1721h169l282 -1032l282 1032h159l-364 -1187v-534h-152v534z" />
<glyph unicode="Z" horiz-adv-x="897" d="M68 0v141l605 1458h-541v122h697v-141l-605 -1458h605v-122h-761z" />
<glyph unicode="[" horiz-adv-x="494" d="M150 -64v1843h331v-81h-179v-1681h179v-81h-331z" />
<glyph unicode="\" horiz-adv-x="639" d="M-12 1721h145l552 -1721h-144z" />
<glyph unicode="]" horiz-adv-x="504" d="M25 17h179v1681h-179v81h331v-1843h-331v81z" />
<glyph unicode="^" horiz-adv-x="739" d="M43 896q68 170 227 563h207l226 -563h-175l-155 540l-153 -540h-177z" />
<glyph unicode="_" horiz-adv-x="913" d="M115 0v115h696v-115h-696z" />
<glyph unicode="`" horiz-adv-x="451" d="M70 1722h162l123 -398h-56z" />
<glyph unicode="a" horiz-adv-x="838" d="M74 232.5q0 112.5 14 147t30.5 65t40.5 53.5q73 72 161.5 123.5t232.5 111.5v10q0 344 -103 375q-18 6 -44 6q-141 0 -153 -228v-7h-156q12 157 92.5 246.5t211.5 89.5q203 0 270 -171q34 -87 34 -202v-576q0 -141 18 -276h-140l-19 145q-48 -84 -118.5 -128t-149 -44 t-150.5 73.5t-72 186zM225 269q0 -88 36 -129.5t89 -41.5t111.5 41t91.5 105v422q-221 -155 -274.5 -232t-53.5 -165z" />
<glyph unicode="b" horiz-adv-x="873" d="M120 0v1721h150v-636q95 140 231 140q43 0 75 -8.5t70 -42.5q119 -109 119 -533v-95q0 -527 -204 -568q-22 -5 -49 -5q-152 0 -242 140v-113h-150zM270 205q45 -54 98 -87.5t85.5 -33.5t45 2t30 11t28.5 27q58 95 58 421v95q0 230 -16.5 302.5t-28.5 103.5 q-24 68 -108.5 68t-191.5 -119v-790z" />
<glyph unicode="c" horiz-adv-x="834" d="M108 454v186q0 181 10 254q20 156 84 234q79 97 240 97t235 -133q52 -94 62 -286h-150q0 171 -45 258q-31 60 -119 60q-169 0 -169 -372l1 -81l-5 -199q0 -175 25.5 -250t61.5 -111.5t86.5 -36.5t77 18t41.5 47q45 91 45 264h151v-7q0 -138 -37.5 -239.5t-104 -142.5 t-168.5 -41q-187 0 -266 153q-56 113 -56 328z" />
<glyph unicode="d" horiz-adv-x="892" d="M100 544l1 97q0 544 203 579q29 5 61 5q134 0 231 -140v636h150v-1721h-150v113q-93 -140 -248 -140t-210 205q-38 142 -38 366zM250 666l1 -135q0 -369 77 -430q22 -17 64 -17q104 0 204 121v790q-108 119 -201 119q-47 0 -69 -21.5t-34.5 -53.5t-20.5 -71 q-14 -71 -17.5 -153t-3.5 -149z" />
<glyph unicode="e" horiz-adv-x="839" d="M109 552l1 167q0 386 165 473q63 33 148 33t134 -20t83 -55q62 -64 82 -165.5t20 -198t-2 -158.5h-480v-183q0 -196 38 -287q29 -70 96 -80q22 -4 60 -4t70 31q74 73 74 262h140v-6q0 -35 -12 -102q-26 -137 -91.5 -211.5t-184 -74.5t-184 38t-100.5 111q-57 120 -57 430 zM260 818l1 -116h332v76q0 181 -18.5 235t-47 82.5t-89.5 28.5q-113 0 -154 -100q-24 -62 -24 -206z" />
<glyph unicode="f" horiz-adv-x="577" d="M20 1114v84h167v171q0 131 32.5 184t74.5 76t112.5 23t119.5 -13v-109q-22 6 -65 6q-74 0 -99 -32t-25 -98v-208h192v-84h-192v-1114h-150v1114h-167z" />
<glyph unicode="g" horiz-adv-x="929" d="M29 -240q0 143 151 253q42 31 85 52q-34 3 -103 32.5t-69 52.5q0 75 101 210q24 33 42 58q-140 129 -140 375q0 173 88.5 302t255.5 129q137 0 228 -111q28 -34 55 -75q96 174 198 186l-20 -148q-75 -13 -147 -95q38 -114 38 -189q0 -182 -77 -298q-91 -136 -271 -136 q-86 0 -144 24q-9 -21 -20.5 -41.5t-30 -56t-18.5 -65.5t26 -41.5t69 -19.5t98 -14.5t112 -17.5q137 -25 210 -74q95 -66 95 -182q0 -263 -420 -263q-392 0 -392 153zM187 -197q0 -90 213 -90h49q248 0 248 132q0 80 -38.5 116t-117.5 51l-214 40q-46 -35 -93 -115t-47 -134 zM249 776.5q0 -125.5 36 -202.5q49 -106 158.5 -106t160.5 106q36 78 36 202q0 209 -96 294q-38 33 -99 33q-109 0 -159 -117q-37 -84 -37 -209.5z" />
<glyph unicode="h" horiz-adv-x="878" d="M120 0v1721h150v-636q89 140 244 140q96 0 165 -76.5t69 -206.5v-942h-152v934q0 112 -75 144q-22 10 -46 10q-101 0 -204 -96v-992h-151z" />
<glyph unicode="i" horiz-adv-x="405" d="M132 0v1198h150v-1198h-150zM132 1472v179h150v-179h-150z" />
<glyph unicode="j" horiz-adv-x="420" d="M-68 -204q46 -2 78 -2t60 22.5t41 55.5t13 110v1216h150v-1244q0 -274 -261 -274q-38 0 -81 8v108zM124 1473v179h150v-179h-150z" />
<glyph unicode="k" horiz-adv-x="870" d="M120 0v1721h150v-1091l374 568h169l-287 -454l285 -744h-157l-235 653l-149 -183v-470h-150z" />
<glyph unicode="l" horiz-adv-x="442" d="M150 0v1721h150v-1721h-150z" />
<glyph unicode="m" horiz-adv-x="1381" d="M120 0v1198h151v-111q117 138 273 138q60 0 105 -29q76 -48 102 -107q81 95 201 127q34 9 72 9q84 0 155.5 -65t71.5 -159v-1001h-150v970q0 75 -36.5 109.5t-87.5 34.5q-106 0 -203 -97v-1017h-150v971q0 75 -37 109t-80 34q-131 0 -237 -119v-995h-150z" />
<glyph unicode="n" horiz-adv-x="878" d="M120 0v1198h150v-113q96 140 254 140q90 0 157 -76.5t67 -207.5v-941h-152v944q0 90 -35 130t-92 40q-103 0 -199 -121v-993h-150z" />
<glyph unicode="o" horiz-adv-x="850" d="M107 588v140q0 223 53 339q72 158 273 158t265 -187q38 -108 41 -221.5t3 -186.5v-145q0 -227 -44 -343q-66 -169 -272 -169t-270 160q-38 91 -43.5 203t-5.5 252zM258 568q0 -225 11 -291q18 -110 52 -156.5t104 -46.5q144 0 158 236q2 32 5.5 86.5t3.5 171.5v62 q0 309 -35.5 401.5t-131.5 92.5q-135 0 -154 -182q-13 -123 -13 -312v-62z" />
<glyph unicode="p" horiz-adv-x="873" d="M120 -385v1583h150v-113q90 140 242 140q92 0 144.5 -61t71.5 -145q37 -159 37 -367v-95q0 -424 -119 -533q-38 -34 -70 -42.5t-75 -8.5q-136 0 -231 140v-498h-150zM270 203q107 -119 191.5 -119t108.5 68q32 86 38.5 191t6.5 215v95q0 404 -87 448q-25 13 -66 13 t-94 -33.5t-98 -87.5v-790z" />
<glyph unicode="q" horiz-adv-x="893" d="M108 557v95q0 527 204 568q22 5 49 5q152 0 242 -140v113h150v-1583h-150v498q-95 -140 -231 -140q-43 0 -75 8.5t-70 42.5q-119 109 -119 533zM258 558q0 -230 16.5 -302.5t27.5 -103.5q25 -68 109.5 -68t191.5 119v790q-45 54 -98 87.5t-85.5 33.5t-45 -2t-30 -11 t-28.5 -27q-58 -95 -58 -421v-95z" />
<glyph unicode="r" horiz-adv-x="569" d="M120 0v1198h150v-169q28 93 101 139.5t151 48.5h3v-151l-26 4q-229 0 -229 -176v-894h-150z" />
<glyph unicode="s" horiz-adv-x="760" d="M54 300l115 39q28 -88 70 -148q78 -110 161 -110t122.5 48t39.5 130q0 115 -205 295l-87 76q-99 87 -149.5 155.5t-50.5 153.5q0 135 82 209.5t219 74.5q177 0 267 -191q25 -51 40 -113l-133 -41q-21 129 -89 196q-40 41 -99.5 41t-99 -45.5t-39.5 -111.5t38.5 -120 t111.5 -116l95 -82q147 -128 192.5 -208t47.5 -170q0 -134 -84.5 -211.5t-218.5 -77.5t-222.5 92.5t-123.5 234.5z" />
<glyph unicode="t" horiz-adv-x="594" d="M16 1114v84h163v425h150v-425h192v-84h-192v-824q0 -132 24 -164t75.5 -32t90.5 8v-103q-67 -17 -126.5 -17t-99.5 18q-72 31 -93 103.5t-21 179.5v831h-163z" />
<glyph unicode="u" horiz-adv-x="878" d="M130 257v941h152v-944q0 -89 35 -129.5t87 -40.5q107 0 204 121v993h150v-1198h-150v113q-96 -140 -254 -140q-89 0 -156.5 74.5t-67.5 209.5z" />
<glyph unicode="v" horiz-adv-x="793" d="M45 1198h146l202 -1106l194 1106h143l-241 -1198h-194z" />
<glyph unicode="w" horiz-adv-x="1204" d="M57 1198h131l154 -1042l175 1042h160l188 -1042l140 1042h129l-196 -1198h-155l-183 1028l-176 -1028h-169z" />
<glyph unicode="x" horiz-adv-x="848" d="M72 0l258 626l-256 572h155l196 -499l196 499h155l-257 -572l258 -626h-146l-206 534l-206 -534h-147z" />
<glyph unicode="y" horiz-adv-x="809" d="M60 1197h162l198 -1030l194 1031h162l-300 -1281q-30 -116 -119.5 -163.5t-253.5 -52.5h-3v123q231 15 231 130q0 73 -11 142z" />
<glyph unicode="z" horiz-adv-x="731" d="M68 0v144l472 940h-408v114h549v-143l-461 -940h455v-115h-607z" />
<glyph unicode="{" horiz-adv-x="520" d="M35 768v188q79 0 105 40.5t26 118t0.5 118.5t3.5 109t9 105.5t18 91t29 83.5q51 91 103 118q81 41 182 41v-113q-108 0 -147 -59q-23 -35 -36 -65.5t-19.5 -114.5t-6.5 -198t-5.5 -157.5t-21.5 -88.5q-33 -93 -136 -123q103 -30 136 -123q27 -76 27 -184t1 -155t6.5 -118 t18.5 -101.5t36 -65.5q39 -59 147 -59v-113q-101 0 -182 41q-51 27 -105 122t-58 385v119q0 77 -26 117.5t-105 40.5z" />
<glyph unicode="|" horiz-adv-x="416" d="M150 -128v1874h118v-1874h-118z" />
<glyph unicode="}" horiz-adv-x="530" d="M25 56q108 0 147 59q23 35 36 65.5t19.5 114.5t6.5 198t5.5 157.5t21.5 88.5q33 93 136 123q-103 30 -136 123q-27 76 -27 184t-1 155t-6.5 118t-18.5 101.5t-36 65.5q-39 59 -147 59v113q101 0 182 -41q51 -27 105 -122t58 -385v-119q0 -77 26 -117.5t105 -40.5v-188 q-79 0 -105 -40.5t-26 -118t-0.5 -118.5t-3.5 -109t-9 -105.5t-18 -91t-29 -83.5q-51 -91 -103 -118q-81 -41 -182 -41v113z" />
<glyph unicode="~" horiz-adv-x="815" d="M98 959q7 129 97 171q34 16 78 16t141.5 -38t131 -38t49.5 14.5t21 52.5h116q0 -27 -10 -63q-17 -57 -54.5 -92t-102 -35t-159 39t-127 39t-47 -14t-19.5 -52h-115z" />
<glyph unicode="&#xa1;" horiz-adv-x="424" d="M100 1280v179h185v-179h-185zM164 0v1075h121v-1075h-121z" />
<glyph unicode="&#xa2;" horiz-adv-x="760" d="M76 794v62q0 237 16 296q40 140 90 184q77 67 187 74v133h65v-134q152 -12 211 -132q49 -99 62 -285h-150v14q-1 32 -2 45t-3.5 47.5t-7 52.5t-11.5 47q-9 37 -41.5 74t-79 37t-72.5 -9.5t-44.5 -24t-31.5 -46.5q-24 -63 -30 -148.5t-8 -224.5v-62q0 -264 28 -344 q40 -111 138 -111q53 0 73 16.5t31 27t19.5 31.5t14.5 34t10 40.5t6.5 40.5t4.5 43.5t3 39.5l3 57h151q-11 -132 -15.5 -163t-22.5 -86q-57 -165 -235 -180v-153h-65v153q-110 7 -187 69q-48 39 -77.5 136.5t-29.5 348.5z" />
<glyph unicode="&#xa3;" horiz-adv-x="836" d="M55 0v65l128 50v653h-128v109h128v327q0 170 21 248q41 151 111 222t193 71q196 0 254 -197q22 -72 22 -184v-21h-120q0 129 -10 159q-23 71 -49 90q-66 44 -148 18q-31 -11 -54 -35.5t-31.5 -49t-15 -43.5t-10.5 -53t-6 -57q-5 -41 -5 -134v-355h289v-115h-289v-653h448 v-115h-728z" />
<glyph unicode="&#xa4;" horiz-adv-x="1028" d="M106 634q0 92 34.5 176.5t100.5 142.5l-73 117l54 38l72 -116q96 59 227.5 59t230.5 -69l79 126l54 -38l-82 -129q123 -121 123 -308t-127 -308l86 -136l-54 -38l-84 133q-99 -65 -226.5 -65t-221.5 56l-77 -124l-54 38l78 124q-68 59 -104 144t-36 177zM211 635 q0 -181 136 -273q71 -49 168.5 -49t168.5 48q137 93 137 274q0 129 -80.5 224.5t-224.5 99.5q-145 -4 -225 -99t-80 -225z" />
<glyph unicode="&#xa5;" horiz-adv-x="909" d="M10 1721h169l282 -1032l282 1032h159l-340 -1109h181v-89h-205v-206h205v-91h-205v-226h-152v226h-212v91h212v206h-212v89h187z" />
<glyph unicode="&#xa6;" horiz-adv-x="403" d="M137 -14v551h132v-551h-132zM137 889v552h132v-552h-132z" />
<glyph unicode="&#xa7;" horiz-adv-x="834" d="M78 300l115 39q28 -88 70 -148q78 -110 161 -110t122.5 48t39.5 130q0 115 -205 295l-87 76q-123 108 -142.5 135.5t-45.5 68t-26 122t44.5 148.5t124.5 97q-133 125 -133 248.5t82 198t219 74.5q177 0 267 -190q25 -52 40 -114l-133 -41q-21 129 -89 197 q-40 40 -99.5 40t-99 -45.5t-39.5 -102t26.5 -100t55 -71.5t82.5 -74l95 -82q176 -153 219 -267q20 -54 21 -111q0 -177 -140 -251q101 -117 102.5 -249.5t-83 -210t-218.5 -77.5t-222.5 92.5t-123.5 234.5zM228 952q0 -64 47 -116t117 -114l146 -127q84 38 84 159t-205 299 l-69 60q-56 -9 -88 -53t-32 -108z" />
<glyph unicode="&#xa8;" horiz-adv-x="795" d="M113 1386v179h184v-179h-184zM497 1386v179h184v-179h-184z" />
<glyph unicode="&#xa9;" horiz-adv-x="1378" d="M66 657q0 100 25 195t77 179.5t125.5 147.5t177 100t225.5 37t225.5 -37t177 -100t125.5 -147.5t77 -179.5t25 -195t-25 -195t-77 -179.5t-125.5 -147.5t-177 -100t-225.5 -37t-225.5 37t-177 100t-125.5 147.5t-77 179.5t-25 195zM156 657q0 -187 88 -335 q150 -255 452 -255t452 255q88 148 88 335t-88 335q-150 255 -452 255t-452 -255q-88 -148 -88 -335zM462 667q0 45 0.5 71.5t2.5 69t6.5 69t12.5 62t20 57.5q62 116 184 116q103 0 154 -54q57 -61 71 -169q4 -30 4 -41v-19h-87q-3 156 -64 195q-26 16 -62.5 16t-60 -8 t-40 -29t-26 -46.5t-14.5 -72.5t-6.5 -94t-1.5 -123t1.5 -123t6.5 -94q17 -156 123 -156q93 0 117.5 61t26.5 150h87q0 -90 -40 -171q-55 -112 -172 -112t-171 69q-38 49 -48 94.5t-14.5 72t-6.5 69t-2.5 69t-0.5 71.5z" />
<glyph unicode="&#xaa;" horiz-adv-x="745" d="M94 992.5q0 102.5 39 160t95 92.5q116 73 265 131q0 191 -35 238.5t-87 47.5q-119 0 -128 -196h-130q10 131 77 205.5t176 74.5q168 0 225 -142q29 -73 29 -169v-419q0 -113 15 -220h-117l-16 120q-40 -70 -99 -106.5t-124 -36.5t-125 58.5t-60 161zM220 998 q0 -57 30 -89t74 -32t92.5 31.5t76.5 80.5v331q-135 -87 -187.5 -137t-69 -89t-16.5 -96z" />
<glyph unicode="&#xab;" horiz-adv-x="874" d="M78 576v128l388 452v-200l-276 -315l276 -317v-200zM390 576v128l388 452v-200l-276 -315l276 -317v-200z" />
<glyph unicode="&#xac;" horiz-adv-x="657" d="M100 448v115h440v-307h-56v192h-384z" />
<glyph unicode="&#xad;" horiz-adv-x="659" d="M117 448v115h441v-115h-441z" />
<glyph unicode="&#xae;" horiz-adv-x="1378" d="M66 657q0 100 25 195t77 179.5t125.5 147.5t177 100t225.5 37t225.5 -37t177 -100t125.5 -147.5t77 -179.5t25 -195t-25 -195t-77 -179.5t-125.5 -147.5t-177 -100t-225.5 -37t-225.5 37t-177 100t-125.5 147.5t-77 179.5t-25 195zM156 657q0 -187 88 -335 q150 -255 452 -255t452 255q88 148 88 335t-88 335q-150 255 -452 255t-452 -255q-88 -148 -88 -335zM504 241v842h191q236 0 236 -240q0 -70 -47 -122.5t-101 -63.5l154 -413h-86l-133 402h-142v-405h-72zM576 695h92q82 0 99 7q52 24 68 55t16 107t-41 122t-128 46h-106 v-337z" />
<glyph unicode="&#xaf;" horiz-adv-x="702" d="M131 1383v115h441v-115h-441z" />
<glyph unicode="&#xb0;" horiz-adv-x="637" d="M98 1504q0 88 56 153t163 65t163 -65t56 -153t-56 -153t-163 -65t-163 65t-56 153zM176 1504q0 -59 34 -103t107 -44t107 44t34 103t-34 103t-107 44t-107 -44t-34 -103z" />
<glyph unicode="&#xb1;" horiz-adv-x="702" d="M106 0v115h504v-115h-504zM106 576v115h192v192h120v-192h192v-115h-192v-192h-120v192h-192z" />
<glyph unicode="&#xb2;" horiz-adv-x="764" d="M100 586v100l305 459q117 188 117 278q0 212 -124 212q-97 0 -125.5 -75.5t-28.5 -188.5h-142q0 372 295 372q133 0 200 -85t67 -234q0 -116 -130 -318l-265 -409h381v-111h-550z" />
<glyph unicode="&#xb3;" horiz-adv-x="770" d="M104 955h130q0 -194 72 -241q31 -21 77 -21q142 0 142 199q0 88 -46.5 164t-114.5 90v84q78 22 119.5 77.5t41.5 117.5q0 213 -132 213q-140 0 -156 -184q-3 -35 -3 -80h-130q0 177 71 273.5t208 96.5t204.5 -88t67.5 -220q0 -74 -45 -145t-113 -103q66 -39 112 -122 t46 -153q0 -149 -69 -237.5t-207 -88.5t-206.5 96.5t-68.5 271.5z" />
<glyph unicode="&#xb4;" horiz-adv-x="444" d="M96 1324l123 398h162l-229 -398h-56z" />
<glyph unicode="&#xb5;" horiz-adv-x="901" d="M145 -232v1430h152v-944q0 -89 35 -129.5t87 -40.5q107 0 204 121v993h150v-1198h-150v113q-41 -70 -101 -105t-122.5 -35t-115.5 50l-7 -255h-132z" />
<glyph unicode="&#xb6;" horiz-adv-x="969" d="M23 1165.5q0 138.5 93 216t278 77.5h437v-1459h-106v876h-211v-876h-125v876q-170 0 -268 75.5t-98 214z" />
<glyph unicode="&#xb7;" horiz-adv-x="446" d="M131 704v179h185v-179h-185z" />
<glyph unicode="&#xb8;" horiz-adv-x="449" d="M111 -335q147 0 147 67q0 31 -29 67.5t-74 66.5v134h64v-115q142 -83 142 -162q0 -52 -66.5 -84.5t-183.5 -32.5v59z" />
<glyph unicode="&#xb9;" horiz-adv-x="522" d="M51 1408v125q60 22 130 70.5t111 117.5h87v-1133h-136v909q-42 -29 -99 -55t-93 -34z" />
<glyph unicode="&#xba;" horiz-adv-x="715" d="M111 1234v49q0 160 6.5 201.5t15 80.5t20.5 61t31 48t43 40t57.5 23.5t73.5 9.5t73.5 -9.5t58 -23.5t43 -40t31 -48t20.5 -61q22 -99 22 -282v-49q0 -218 -14 -266q-34 -115 -86.5 -156.5t-130 -41.5t-121.5 16t-70 54t-42 72q-31 66 -31 322zM228 1234 q0 -220 25.5 -302.5t105 -82.5t105 82.5t25.5 302.5v49q0 265 -33 325t-106.5 60t-97.5 -82t-24 -303v-49z" />
<glyph unicode="&#xbb;" horiz-adv-x="872" d="M111 124v200l276 317l-276 315v200l388 -452v-128zM423 124v200l276 317l-276 315v200l388 -452v-128z" />
<glyph unicode="&#xbc;" horiz-adv-x="1499" d="M0 1408v125q60 22 130 70.5t111 117.5h87v-1133h-136v909q-42 -29 -99 -55t-93 -34zM348 0l552 1721h145l-553 -1721h-144zM883 276v95l301 761h210v-754h134v-102h-134v-277h-136v277h-375zM1028 378h230l-1 638z" />
<glyph unicode="&#xbd;" horiz-adv-x="1716" d="M0 1408v125q60 22 130 70.5t111 117.5h87v-1133h-136v909q-42 -29 -99 -55t-93 -34zM468 0l552 1721h145l-553 -1721h-144zM1126 -1v100l305 459q117 188 117 278q0 212 -124 212q-97 0 -125.5 -75.5t-28.5 -188.5h-142q0 372 295 372q133 0 200 -85t67 -234 q0 -116 -130 -318l-265 -409h381v-111h-550z" />
<glyph unicode="&#xbe;" horiz-adv-x="1890" d="M59 955h130q0 -194 72 -241q31 -21 77 -21q142 0 142 199q0 88 -46.5 164t-114.5 90v84q78 22 119.5 77.5t41.5 117.5q0 213 -132 213q-140 0 -156 -184q-3 -35 -3 -80h-130q0 177 71 273.5t208 96.5t204.5 -88t67.5 -220q0 -74 -45 -145t-113 -103q66 -39 112 -122 t46 -153q0 -149 -69 -237.5t-207 -88.5t-206.5 96.5t-68.5 271.5zM645 0l552 1721h145l-553 -1721h-144zM1273 276v95l301 761h210v-754h134v-102h-134v-277h-136v277h-375zM1418 378h230l-1 638z" />
<glyph unicode="&#xbf;" horiz-adv-x="811" d="M12 385.5q0 195.5 98.5 335.5t296.5 263v284h134v-341q-272 -156 -355 -353q-37 -88 -37 -170q0 -163 75 -235.5t185.5 -72.5t186.5 79.5t77 223.5l1 142h134v-146q0 -99 -35 -181t-92 -134q-119 -106 -276.5 -106t-275 108t-117.5 303.5zM382 1540v179h184v-179h-184z " />
<glyph unicode="&#xc0;" horiz-adv-x="981" d="M50 0l340 1721h198l340 -1721h-154l-86 448h-397l-88 -448h-153zM229 2246h162l123 -398h-56zM309 549h360l-181 1014z" />
<glyph unicode="&#xc1;" horiz-adv-x="981" d="M50 0l340 1721h198l340 -1721h-154l-86 448h-397l-88 -448h-153zM309 549h360l-181 1014zM432 1848l123 398h162l-229 -398h-56z" />
<glyph unicode="&#xc2;" horiz-adv-x="981" d="M50 0l340 1721h198l340 -1721h-154l-86 448h-397l-88 -448h-153zM226 1930l156 307h213l153 -307h-110l-150 299l-149 -299h-113zM309 549h360l-181 1014z" />
<glyph unicode="&#xc3;" horiz-adv-x="981" d="M50 0l340 1721h198l340 -1721h-154l-86 448h-397l-88 -448h-153zM204 1899q7 128 103 171q36 16 74 16t104.5 -38t92.5 -38q55 0 64 67h116q-6 -77 -27.5 -107t-40 -46.5t-48.5 -26.5t-68 -10t-103.5 39t-91.5 39t-40.5 -14t-19.5 -52h-115zM309 549h360l-181 1014z" />
<glyph unicode="&#xc4;" horiz-adv-x="981" d="M50 0l340 1721h198l340 -1721h-154l-86 448h-397l-88 -448h-153zM202 1908v179h184v-179h-184zM309 549h360l-181 1014zM586 1908v179h184v-179h-184z" />
<glyph unicode="&#xc5;" horiz-adv-x="981" d="M50 0l340 1721h198l340 -1721h-154l-86 448h-397l-88 -448h-153zM269 2027q0 88 56 153t163 65t163 -65t56 -153t-56 -153t-163 -65t-163 65t-56 153zM309 549h360l-181 1014zM347 2027q0 -59 34 -103t107 -44t107 44t34 103t-34 103t-107 44t-107 -44t-34 -103z" />
<glyph unicode="&#xc6;" horiz-adv-x="1380" d="M12 0l636 1721h672v-122h-448v-652h320v-115h-320v-710h448v-122h-600v448h-391l-165 -448h-152zM365 549h354v1014z" />
<glyph unicode="&#xc7;" horiz-adv-x="1073" d="M119 499v721q0 525 437 525q404 0 404 -525v-70h-145v104q0 369 -259 369q-225 0 -271 -219q-14 -68 -14 -150v-789q0 -268 147 -343q55 -27 138 -27q259 0 259 370v118h145v-84q0 -526 -404 -526q-437 0 -437 526zM476 -335q147 0 147 67q0 31 -29 67.5t-74 66.5v134h64 v-115q142 -83 142 -162q0 -52 -66.5 -84.5t-183.5 -32.5v59z" />
<glyph unicode="&#xc8;" horiz-adv-x="808" d="M146 0v1721h600v-122h-448v-652h320v-115h-320v-710h448v-122h-600zM182 2246h162l123 -398h-56z" />
<glyph unicode="&#xc9;" horiz-adv-x="808" d="M146 0v1721h600v-122h-448v-652h320v-115h-320v-710h448v-122h-600zM385 1848l123 398h162l-229 -398h-56z" />
<glyph unicode="&#xca;" horiz-adv-x="808" d="M146 0v1721h600v-122h-448v-652h320v-115h-320v-710h448v-122h-600zM179 1930l156 307h213l153 -307h-110l-150 299l-149 -299h-113z" />
<glyph unicode="&#xcb;" horiz-adv-x="808" d="M146 0v1721h600v-122h-448v-652h320v-115h-320v-710h448v-122h-600zM155 1908v179h184v-179h-184zM539 1908v179h184v-179h-184z" />
<glyph unicode="&#xcc;" horiz-adv-x="444" d="M-36 2246h162l123 -398h-56zM145 0v1721h152v-1721h-152z" />
<glyph unicode="&#xcd;" horiz-adv-x="444" d="M145 0v1721h152v-1721h-152zM166 1848l123 398h162l-229 -398h-56z" />
<glyph unicode="&#xce;" horiz-adv-x="444" d="M-39 1930l156 307h213l153 -307h-110l-150 299l-149 -299h-113zM145 0v1721h152v-1721h-152z" />
<glyph unicode="&#xcf;" horiz-adv-x="444" d="M-63 1908v179h184v-179h-184zM145 0v1721h152v-1721h-152zM321 1908v179h184v-179h-184z" />
<glyph unicode="&#xd0;" horiz-adv-x="1128" d="M43 809v115h140v797h387q439 0 439 -513v-700q0 -508 -439 -508h-387v809h-140zM335 122h235q287 0 287 352v768q0 357 -287 357h-235v-675h200v-115h-200v-687z" />
<glyph unicode="&#xd1;" horiz-adv-x="1083" d="M146 0v1721h117l545 -1363v1363h129v-1721h-114l-546 1334v-1334h-131zM274 1899q7 128 103 171q36 16 74 16t104.5 -38t92.5 -38q55 0 64 67h116q-6 -77 -27.5 -107t-40 -46.5t-48.5 -26.5t-68 -10t-103.5 39t-91.5 39t-40.5 -14t-19.5 -52h-115z" />
<glyph unicode="&#xd2;" d="M119 499v721q0 373 229 484q85 41 210 41q439 0 439 -525v-721q0 -526 -439 -526t-439 526zM271 465q0 -370 287 -370t287 370v789q0 369 -287 369t-287 -369v-789zM300 2246h162l123 -398h-56z" />
<glyph unicode="&#xd3;" d="M119 499v721q0 373 229 484q85 41 210 41q439 0 439 -525v-721q0 -526 -439 -526t-439 526zM271 465q0 -370 287 -370t287 370v789q0 369 -287 369t-287 -369v-789zM503 1848l123 398h162l-229 -398h-56z" />
<glyph unicode="&#xd4;" d="M119 499v721q0 373 229 484q85 41 210 41q439 0 439 -525v-721q0 -526 -439 -526t-439 526zM271 465q0 -370 287 -370t287 370v789q0 369 -287 369t-287 -369v-789zM297 1930l156 307h213l153 -307h-110l-150 299l-149 -299h-113z" />
<glyph unicode="&#xd5;" d="M119 499v721q0 373 229 484q85 41 210 41q439 0 439 -525v-721q0 -526 -439 -526t-439 526zM271 465q0 -370 287 -370t287 370v789q0 369 -287 369t-287 -369v-789zM275 1899q7 128 103 171q36 16 74 16t104.5 -38t92.5 -38q55 0 64 67h116q-6 -77 -27.5 -107t-40 -46.5 t-48.5 -26.5t-68 -10t-103.5 39t-91.5 39t-40.5 -14t-19.5 -52h-115z" />
<glyph unicode="&#xd6;" d="M119 499v721q0 373 229 484q85 41 210 41q439 0 439 -525v-721q0 -526 -439 -526t-439 526zM271 465q0 -370 287 -370t287 370v789q0 369 -287 369t-287 -369v-789zM273 1908v179h184v-179h-184zM657 1908v179h184v-179h-184z" />
<glyph unicode="&#xd7;" horiz-adv-x="674" d="M51 410l192 192l-192 192l76 75l192 -192l192 192l76 -75l-192 -192l192 -192l-76 -76l-192 192l-192 -192z" />
<glyph unicode="&#xd8;" d="M119 499v721q0 404 265 498q76 27 192 27t211 -52l57 177l65 -20l-63 -197q151 -129 151 -433v-721q0 -526 -439 -526q-138 0 -236 53l-57 -178l-64 20l64 198q-146 127 -146 433zM271 465q0 -370 287 -370t287 370v789q0 369 -287 369t-287 -369v-789z" />
<glyph unicode="&#xd9;" horiz-adv-x="1145" d="M135 423v1298h152v-1333q0 -224 158 -275q55 -18 135 -18q150 0 214 73t64 220v1333h151v-1298q0 -450 -429 -450q-445 0 -445 450zM320 2246h162l123 -398h-56z" />
<glyph unicode="&#xda;" horiz-adv-x="1145" d="M135 423v1298h152v-1333q0 -224 158 -275q55 -18 135 -18q150 0 214 73t64 220v1333h151v-1298q0 -450 -429 -450q-445 0 -445 450zM523 1848l123 398h162l-229 -398h-56z" />
<glyph unicode="&#xdb;" horiz-adv-x="1145" d="M135 423v1298h152v-1333q0 -224 158 -275q55 -18 135 -18q150 0 214 73t64 220v1333h151v-1298q0 -450 -429 -450q-445 0 -445 450zM317 1930l156 307h213l153 -307h-110l-150 299l-149 -299h-113z" />
<glyph unicode="&#xdc;" horiz-adv-x="1145" d="M135 423v1298h152v-1333q0 -224 158 -275q55 -18 135 -18q150 0 214 73t64 220v1333h151v-1298q0 -450 -429 -450q-445 0 -445 450zM293 1908v179h184v-179h-184zM677 1908v179h184v-179h-184z" />
<glyph unicode="&#xdd;" horiz-adv-x="888" d="M-2 1721h169l282 -1032l282 1032h159l-364 -1187v-534h-152v534zM397 1848l123 398h162l-229 -398h-56z" />
<glyph unicode="&#xde;" horiz-adv-x="1058" d="M146 0v1721h152v-259h269q255 0 352 -193q55 -110 55 -270q0 -493 -408 -493h-268v-506h-152zM298 628l286 -1q128 -1 183 88t55 274t-59 268t-179 83h-286v-712z" />
<glyph unicode="&#xdf;" horiz-adv-x="1053" d="M137 0v1338q0 198 111.5 303t255 105t253 -107.5t109.5 -310.5q0 -155 -96 -272q-51 -61 -120 -89q74 -17 132 -59q100 -75 139.5 -200.5t39.5 -254.5q0 -480 -577 -480v116q296 0 381 158q44 81 44 181t-8 160q-18 139 -92 220t-228 81h-105v117h107q169 0 209 200 q11 54 11 119q0 148 -60.5 230.5t-144.5 82.5t-146.5 -80t-62.5 -223v-1335h-152z" />
<glyph unicode="&#xe0;" horiz-adv-x="838" d="M74 232.5q0 112.5 14 147t30.5 65t40.5 53.5q73 72 161.5 123.5t232.5 111.5v10q0 344 -103 375q-18 6 -44 6q-141 0 -153 -228v-7h-156q12 157 92.5 246.5t211.5 89.5q203 0 270 -171q34 -87 34 -202v-576q0 -141 18 -276h-140l-19 145q-48 -84 -118.5 -128t-149 -44 t-150.5 73.5t-72 186zM145 1722h162l123 -398h-56zM225 269q0 -88 36 -129.5t89 -41.5t111.5 41t91.5 105v422q-221 -155 -274.5 -232t-53.5 -165z" />
<glyph unicode="&#xe1;" horiz-adv-x="838" d="M74 232.5q0 112.5 14 147t30.5 65t40.5 53.5q73 72 161.5 123.5t232.5 111.5v10q0 344 -103 375q-18 6 -44 6q-141 0 -153 -228v-7h-156q12 157 92.5 246.5t211.5 89.5q203 0 270 -171q34 -87 34 -202v-576q0 -141 18 -276h-140l-19 145q-48 -84 -118.5 -128t-149 -44 t-150.5 73.5t-72 186zM225 269q0 -88 36 -129.5t89 -41.5t111.5 41t91.5 105v422q-221 -155 -274.5 -232t-53.5 -165zM348 1324l123 398h162l-229 -398h-56z" />
<glyph unicode="&#xe2;" horiz-adv-x="838" d="M74 232.5q0 112.5 14 147t30.5 65t40.5 53.5q73 72 161.5 123.5t232.5 111.5v10q0 344 -103 375q-18 6 -44 6q-141 0 -153 -228v-7h-156q12 157 92.5 246.5t211.5 89.5q203 0 270 -171q34 -87 34 -202v-576q0 -141 18 -276h-140l-19 145q-48 -84 -118.5 -128t-149 -44 t-150.5 73.5t-72 186zM142 1407l156 307h213l153 -307h-110l-150 299l-149 -299h-113zM225 269q0 -88 36 -129.5t89 -41.5t111.5 41t91.5 105v422q-221 -155 -274.5 -232t-53.5 -165z" />
<glyph unicode="&#xe3;" horiz-adv-x="838" d="M74 232.5q0 112.5 14 147t30.5 65t40.5 53.5q73 72 161.5 123.5t232.5 111.5v10q0 344 -103 375q-18 6 -44 6q-141 0 -153 -228v-7h-156q12 157 92.5 246.5t211.5 89.5q203 0 270 -171q34 -87 34 -202v-576q0 -141 18 -276h-140l-19 145q-48 -84 -118.5 -128t-149 -44 t-150.5 73.5t-72 186zM120 1376q7 128 103 171q36 16 74 16t104.5 -38t92.5 -38q55 0 64 67h116q-6 -77 -27.5 -107t-40 -46.5t-48.5 -26.5t-68 -10t-103.5 39t-91.5 39t-40.5 -14t-19.5 -52h-115zM225 269q0 -88 36 -129.5t89 -41.5t111.5 41t91.5 105v422 q-221 -155 -274.5 -232t-53.5 -165z" />
<glyph unicode="&#xe4;" horiz-adv-x="838" d="M74 232.5q0 112.5 14 147t30.5 65t40.5 53.5q73 72 161.5 123.5t232.5 111.5v10q0 344 -103 375q-18 6 -44 6q-141 0 -153 -228v-7h-156q12 157 92.5 246.5t211.5 89.5q203 0 270 -171q34 -87 34 -202v-576q0 -141 18 -276h-140l-19 145q-48 -84 -118.5 -128t-149 -44 t-150.5 73.5t-72 186zM118 1385v179h184v-179h-184zM225 269q0 -88 36 -129.5t89 -41.5t111.5 41t91.5 105v422q-221 -155 -274.5 -232t-53.5 -165zM502 1385v179h184v-179h-184z" />
<glyph unicode="&#xe5;" horiz-adv-x="838" d="M74 232.5q0 112.5 14 147t30.5 65t40.5 53.5q73 72 161.5 123.5t232.5 111.5v10q0 344 -103 375q-18 6 -44 6q-141 0 -153 -228v-7h-156q12 157 92.5 246.5t211.5 89.5q203 0 270 -171q34 -87 34 -202v-576q0 -141 18 -276h-140l-19 145q-48 -84 -118.5 -128t-149 -44 t-150.5 73.5t-72 186zM185 1504q0 88 56 153t163 65t163 -65t56 -153t-56 -153t-163 -65t-163 65t-56 153zM225 269q0 -88 36 -129.5t89 -41.5t111.5 41t91.5 105v422q-221 -155 -274.5 -232t-53.5 -165zM263 1504q0 -59 34 -103t107 -44t107 44t34 103t-34 103t-107 44 t-107 -44t-34 -103z" />
<glyph unicode="&#xe6;" horiz-adv-x="1255" d="M74 232.5q0 112.5 14 144.5t30.5 60t40.5 49q71 60 160.5 102t233.5 87v76q-2 194 -23 256.5t-42 84t-38.5 27t-43.5 5.5t-47 -7q-96 -32 -106 -228h-156q12 157 92.5 246.5t211.5 89.5q165 0 232 -153q82 153 253 153q110 0 184 -73t74 -194q0 -157 -174 -252 q-131 -71 -264 -86v-175q0 -371 152 -371q74 0 115 54t45 218v21h140l-2 -22q-19 -216 -92.5 -294t-189 -78t-184.5 62t-92 174q-39 -136 -135 -190q-188 -105 -317 27q-72 74 -72 186.5zM225 286q0 -189 111 -189q50 0 96 45.5t71 111.5q50 134 50 235v97 q-195 -70 -261.5 -133.5t-66.5 -166.5zM707 704q219 44 276 148q27 50 27 116.5t-31 111t-73.5 44.5t-67.5 -7t-43 -17t-32 -31t-23.5 -38.5t-15.5 -50.5q-13 -63 -15 -129.5t-2 -142.5v-4z" />
<glyph unicode="&#xe7;" horiz-adv-x="844" d="M108 454v186q0 181 10 254q20 156 84 234q79 97 240 97t235 -133q52 -94 62 -286h-150q0 171 -45 258q-31 60 -119 60q-169 0 -169 -372l1 -81l-5 -199q0 -175 25.5 -250t61.5 -111.5t86.5 -36.5t77 18t41.5 47q45 91 45 264h151v-7q0 -138 -37.5 -239.5t-104 -142.5 t-168.5 -41q-187 0 -266 153q-56 113 -56 328zM338 -335q147 0 147 67q0 31 -29 67.5t-74 66.5v134h64v-115q142 -83 142 -162q0 -52 -66.5 -84.5t-183.5 -32.5v59z" />
<glyph unicode="&#xe8;" horiz-adv-x="839" d="M109 552l1 167q0 386 165 473q63 33 148 33t134 -20t83 -55q62 -64 82 -165.5t20 -198t-2 -158.5h-480v-183q0 -196 38 -287q29 -70 96 -80q22 -4 60 -4t70 31q74 73 74 262h140v-6q0 -35 -12 -102q-26 -137 -91.5 -211.5t-184 -74.5t-184 38t-100.5 111q-57 120 -57 430 zM183 1722h162l123 -398h-56zM260 818l1 -116h332v76q0 181 -18.5 235t-47 82.5t-89.5 28.5q-113 0 -154 -100q-24 -62 -24 -206z" />
<glyph unicode="&#xe9;" horiz-adv-x="839" d="M109 552l1 167q0 386 165 473q63 33 148 33t134 -20t83 -55q62 -64 82 -165.5t20 -198t-2 -158.5h-480v-183q0 -196 38 -287q29 -70 96 -80q22 -4 60 -4t70 31q74 73 74 262h140v-6q0 -35 -12 -102q-26 -137 -91.5 -211.5t-184 -74.5t-184 38t-100.5 111q-57 120 -57 430 zM260 818l1 -116h332v76q0 181 -18.5 235t-47 82.5t-89.5 28.5q-113 0 -154 -100q-24 -62 -24 -206zM386 1324l123 398h162l-229 -398h-56z" />
<glyph unicode="&#xea;" horiz-adv-x="839" d="M109 552l1 167q0 386 165 473q63 33 148 33t134 -20t83 -55q62 -64 82 -165.5t20 -198t-2 -158.5h-480v-183q0 -196 38 -287q29 -70 96 -80q22 -4 60 -4t70 31q74 73 74 262h140v-6q0 -35 -12 -102q-26 -137 -91.5 -211.5t-184 -74.5t-184 38t-100.5 111q-57 120 -57 430 zM180 1407l156 307h213l153 -307h-110l-150 299l-149 -299h-113zM260 818l1 -116h332v76q0 181 -18.5 235t-47 82.5t-89.5 28.5q-113 0 -154 -100q-24 -62 -24 -206z" />
<glyph unicode="&#xeb;" horiz-adv-x="839" d="M109 552l1 167q0 386 165 473q63 33 148 33t134 -20t83 -55q62 -64 82 -165.5t20 -198t-2 -158.5h-480v-183q0 -196 38 -287q29 -70 96 -80q22 -4 60 -4t70 31q74 73 74 262h140v-6q0 -35 -12 -102q-26 -137 -91.5 -211.5t-184 -74.5t-184 38t-100.5 111q-57 120 -57 430 zM156 1385v179h184v-179h-184zM260 818l1 -116h332v76q0 181 -18.5 235t-47 82.5t-89.5 28.5q-113 0 -154 -100q-24 -62 -24 -206zM540 1385v179h184v-179h-184z" />
<glyph unicode="&#xec;" horiz-adv-x="405" d="M-46 1723h162l123 -398h-56zM132 0v1198h150v-1198h-150z" />
<glyph unicode="&#xed;" horiz-adv-x="405" d="M132 0v1198h150v-1198h-150zM156 1325l123 398h162l-229 -398h-56z" />
<glyph unicode="&#xee;" horiz-adv-x="405" d="M-49 1408l156 307h213l153 -307h-110l-150 299l-149 -299h-113zM132 0v1198h150v-1198h-150z" />
<glyph unicode="&#xef;" horiz-adv-x="405" d="M-73 1386v179h184v-179h-184zM132 0v1198h150v-1198h-150zM311 1386v179h184v-179h-184z" />
<glyph unicode="&#xf0;" horiz-adv-x="877" d="M84 532v5q0 248 75.5 405t242.5 157q115 0 183 -45q-26 184 -68 304l-165 -37v95l128 29q-50 93 -123.5 130.5t-190.5 47.5l-14 122q167 -12 279.5 -75t182.5 -195l179 41v-95l-140 -32q104 -271 105 -854v-25q0 -264 -82 -400.5t-264 -136.5q-249 0 -310 337 q-18 99 -18 222zM234 531q0 -316 80 -397q38 -39 88.5 -39t77.5 9q66 20 97.5 119t31.5 289t-15 419q-23 21 -80.5 33.5t-112.5 12.5t-91 -38q-74 -80 -76 -394v-14z" />
<glyph unicode="&#xf1;" horiz-adv-x="893" d="M120 0v1198h150v-113q96 140 254 140q90 0 157 -76.5t67 -207.5v-941h-152v944q0 90 -35 130t-92 40q-103 0 -199 -121v-993h-150zM209 1376q7 128 103 171q36 16 74 16t104.5 -38t92.5 -38q55 0 64 67h116q-6 -77 -27.5 -107t-40 -46.5t-48.5 -26.5t-68 -10t-103.5 39 t-91.5 39t-40.5 -14t-19.5 -52h-115z" />
<glyph unicode="&#xf2;" horiz-adv-x="850" d="M107 588v140q0 223 53 339q72 158 273 158t265 -187q38 -108 41 -221.5t3 -186.5v-145q0 -227 -44 -343q-66 -169 -272 -169t-270 160q-38 91 -43.5 203t-5.5 252zM167 1723h162l123 -398h-56zM258 568q0 -225 11 -291q18 -110 52 -156.5t104 -46.5q144 0 158 236 q2 32 5.5 86.5t3.5 171.5v62q0 309 -35.5 401.5t-131.5 92.5q-135 0 -154 -182q-13 -123 -13 -312v-62z" />
<glyph unicode="&#xf3;" horiz-adv-x="850" d="M107 588v140q0 223 53 339q72 158 273 158t265 -187q38 -108 41 -221.5t3 -186.5v-145q0 -227 -44 -343q-66 -169 -272 -169t-270 160q-38 91 -43.5 203t-5.5 252zM258 568q0 -225 11 -291q18 -110 52 -156.5t104 -46.5q144 0 158 236q2 32 5.5 86.5t3.5 171.5v62 q0 309 -35.5 401.5t-131.5 92.5q-135 0 -154 -182q-13 -123 -13 -312v-62zM370 1325l123 398h162l-229 -398h-56z" />
<glyph unicode="&#xf4;" horiz-adv-x="850" d="M107 588v140q0 223 53 339q72 158 273 158t265 -187q38 -108 41 -221.5t3 -186.5v-145q0 -227 -44 -343q-66 -169 -272 -169t-270 160q-38 91 -43.5 203t-5.5 252zM164 1408l156 307h213l153 -307h-110l-150 299l-149 -299h-113zM258 568q0 -225 11 -291 q18 -110 52 -156.5t104 -46.5q144 0 158 236q2 32 5.5 86.5t3.5 171.5v62q0 309 -35.5 401.5t-131.5 92.5q-135 0 -154 -182q-13 -123 -13 -312v-62z" />
<glyph unicode="&#xf5;" horiz-adv-x="850" d="M107 588v140q0 223 53 339q72 158 273 158t265 -187q38 -108 41 -221.5t3 -186.5v-145q0 -227 -44 -343q-66 -169 -272 -169t-270 160q-38 91 -43.5 203t-5.5 252zM142 1376q7 128 103 171q36 16 74 16t104.5 -38t92.5 -38q55 0 64 67h116q-6 -77 -27.5 -107t-40 -46.5 t-48.5 -26.5t-68 -10t-103.5 39t-91.5 39t-40.5 -14t-19.5 -52h-115zM258 568q0 -225 11 -291q18 -110 52 -156.5t104 -46.5q144 0 158 236q2 32 5.5 86.5t3.5 171.5v62q0 309 -35.5 401.5t-131.5 92.5q-135 0 -154 -182q-13 -123 -13 -312v-62z" />
<glyph unicode="&#xf6;" horiz-adv-x="850" d="M107 588v140q0 223 53 339q72 158 273 158t265 -187q38 -108 41 -221.5t3 -186.5v-145q0 -227 -44 -343q-66 -169 -272 -169t-270 160q-38 91 -43.5 203t-5.5 252zM140 1386v179h184v-179h-184zM258 568q0 -225 11 -291q18 -110 52 -156.5t104 -46.5q144 0 158 236 q2 32 5.5 86.5t3.5 171.5v62q0 309 -35.5 401.5t-131.5 92.5q-135 0 -154 -182q-13 -123 -13 -312v-62zM524 1386v179h184v-179h-184z" />
<glyph unicode="&#xf7;" horiz-adv-x="674" d="M35 576v115h568v-115h-568zM227 233v179h184v-179h-184zM227 879v179h184v-179h-184z" />
<glyph unicode="&#xf8;" horiz-adv-x="852" d="M108 568v62q0 266 18 330q43 153 98 198q82 67 193.5 67t180.5 -47l97 303l49 -16l-104 -323q98 -112 102 -394v-180q0 -220 -8.5 -271t-19.5 -100t-26 -76q-48 -83 -95 -109q-74 -39 -165.5 -39t-153.5 31l-83 -260l-48 16l87 272q-97 81 -114 284q-8 98 -8 252z M258 568q0 -282 33 -388t134 -106t134 106t33 388v62q0 290 -26.5 375t-77.5 107q-26 12 -63 12t-63.5 -11.5t-45.5 -38.5q-36 -52 -47 -154.5t-11 -289.5v-62z" />
<glyph unicode="&#xf9;" horiz-adv-x="889" d="M126 257v941h152v-944q0 -89 35 -129.5t87 -40.5q107 0 204 121v993h150v-1198h-150v113q-96 -140 -254 -140q-89 0 -156.5 74.5t-67.5 209.5zM182 1723h162l123 -398h-56z" />
<glyph unicode="&#xfa;" horiz-adv-x="889" d="M126 257v941h152v-944q0 -89 35 -129.5t87 -40.5q107 0 204 121v993h150v-1198h-150v113q-96 -140 -254 -140q-89 0 -156.5 74.5t-67.5 209.5zM385 1325l123 398h162l-229 -398h-56z" />
<glyph unicode="&#xfb;" horiz-adv-x="889" d="M126 257v941h152v-944q0 -89 35 -129.5t87 -40.5q107 0 204 121v993h150v-1198h-150v113q-96 -140 -254 -140q-89 0 -156.5 74.5t-67.5 209.5zM179 1408l156 307h213l153 -307h-110l-150 299l-149 -299h-113z" />
<glyph unicode="&#xfc;" horiz-adv-x="889" d="M126 257v941h152v-944q0 -89 35 -129.5t87 -40.5q107 0 204 121v993h150v-1198h-150v113q-96 -140 -254 -140q-89 0 -156.5 74.5t-67.5 209.5zM155 1386v179h184v-179h-184zM539 1386v179h184v-179h-184z" />
<glyph unicode="&#xfd;" horiz-adv-x="809" d="M42 1197h162l198 -1030l194 1031h162l-300 -1281q-30 -116 -119.5 -163.5t-253.5 -52.5h-3v123q231 15 231 130q0 73 -11 142zM348 1325l123 398h162l-229 -398h-56z" />
<glyph unicode="&#xfe;" horiz-adv-x="874" d="M120 -385v2106h150v-636q95 140 231 140q43 0 75 -8.5t70 -42.5q119 -109 119 -533v-95q0 -527 -204 -568q-22 -5 -49 -5q-152 0 -242 140v-498h-150zM270 205q45 -54 98 -87.5t85.5 -33.5t45 2t30 11t28.5 27q58 95 58 421v95q0 230 -16.5 302.5t-28.5 103.5 q-24 68 -108.5 68t-191.5 -119v-790z" />
<glyph unicode="&#xff;" horiz-adv-x="809" d="M42 1197h162l198 -1030l194 1031h162l-300 -1281q-30 -116 -119.5 -163.5t-253.5 -52.5h-3v123q231 15 231 130q0 73 -11 142zM118 1386v179h184v-179h-184zM502 1386v179h184v-179h-184z" />
<glyph unicode="&#x152;" horiz-adv-x="1499" d="M115 499v721q0 501 439 501h887v-122h-448v-652h320v-115h-320v-710h448v-122h-887q-439 0 -439 499zM267 465q0 -341 287 -344h287v1478h-287q-163 0 -225 -97t-62 -248v-789z" />
<glyph unicode="&#x153;" horiz-adv-x="1332" d="M108 568v62q0 266 18 330q43 153 98 198q82 67 201 67q168 0 243 -121q42 68 105 94.5t150 26.5q161 0 231.5 -114t70.5 -360q0 -75 -2 -123h-480v-183q0 -234 48 -307q25 -38 55 -51t76 -13q155 0 159 281v12h140q-14 -111 -20.5 -145.5t-28.5 -86.5 q-66 -162 -248.5 -162t-255.5 114q-75 -114 -238 -114t-228 89q-24 32 -39.5 59t-26.5 76q-21 95 -24.5 177.5t-3.5 193.5zM258 568q0 -282 33 -388t134 -106t134 106t33 388v62q0 291 -27 376t-77 106q-26 12 -63 12t-63.5 -11.5t-45.5 -38.5q-36 -52 -47 -154.5 t-11 -289.5v-62zM744 702h332v71q0 180 -14 225t-30 72q-30 54 -113 54t-116 -43.5t-41 -78.5q-13 -65 -15.5 -130.5t-2.5 -152.5v-17z" />
<glyph unicode="&#x178;" horiz-adv-x="888" d="M-2 1721h169l282 -1032l282 1032h159l-364 -1187v-534h-152v534zM216 1908v179h184v-179h-184zM600 1908v179h184v-179h-184z" />
<glyph unicode="&#x2c6;" horiz-adv-x="713" d="M94 1408l156 307h213l153 -307h-110l-150 299l-149 -299h-113z" />
<glyph unicode="&#x2dc;" horiz-adv-x="754" d="M102 1376q7 128 103 171q36 16 74 16t104.5 -38t92.5 -38q55 0 64 67h116q-6 -77 -27.5 -107t-40 -46.5t-48.5 -26.5t-68 -10t-103.5 39t-91.5 39t-40.5 -14t-19.5 -52h-115z" />
<glyph unicode="&#x2000;" horiz-adv-x="1123" />
<glyph unicode="&#x2001;" horiz-adv-x="2246" />
<glyph unicode="&#x2002;" horiz-adv-x="1123" />
<glyph unicode="&#x2003;" horiz-adv-x="2246" />
<glyph unicode="&#x2004;" horiz-adv-x="748" />
<glyph unicode="&#x2005;" horiz-adv-x="561" />
<glyph unicode="&#x2006;" horiz-adv-x="374" />
<glyph unicode="&#x2007;" horiz-adv-x="374" />
<glyph unicode="&#x2008;" horiz-adv-x="280" />
<glyph unicode="&#x2009;" horiz-adv-x="449" />
<glyph unicode="&#x200a;" horiz-adv-x="124" />
<glyph unicode="&#x2010;" horiz-adv-x="532" d="M117 448v115h313v-115h-313z" />
<glyph unicode="&#x2011;" horiz-adv-x="532" d="M117 448v115h313v-115h-313z" />
<glyph unicode="&#x2012;" horiz-adv-x="532" d="M117 448v115h313v-115h-313z" />
<glyph unicode="&#x2013;" horiz-adv-x="793" d="M117 448v115h574v-115h-574z" />
<glyph unicode="&#x2014;" horiz-adv-x="1194" d="M117 448v115h974v-115h-974z" />
<glyph unicode="&#x2018;" horiz-adv-x="403" d="M111 1311q0 243 25 333.5t111 101.5l27 -55q-71 -22 -91 -101q-15 -57 -15 -100h128v-179h-185z" />
<glyph unicode="&#x2019;" horiz-adv-x="393" d="M100 1542v179h185q0 -243 -25 -333.5t-111 -101.5l-27 55q71 22 91 101q15 57 15 100h-128z" />
<glyph unicode="&#x201a;" horiz-adv-x="403" d="M123 -14h168q-35 -217 -50 -307h-68z" />
<glyph unicode="&#x201c;" horiz-adv-x="698" d="M111 1311q0 243 25 333.5t111 101.5l27 -55q-71 -22 -91 -101q-15 -57 -15 -100h128v-179h-185zM405 1311q0 243 25 333.5t111 101.5l27 -55q-71 -22 -91 -101q-15 -57 -15 -100h128v-179h-185z" />
<glyph unicode="&#x201d;" horiz-adv-x="686" d="M100 1542v179h185q0 -243 -25 -333.5t-111 -101.5l-27 55q71 22 91 101q15 57 15 100h-128zM394 1542v179h185q0 -243 -25 -333.5t-111 -101.5l-27 55q71 22 91 101q15 57 15 100h-128z" />
<glyph unicode="&#x201e;" horiz-adv-x="725" d="M123 -13h168q-35 -217 -50 -307h-67zM446 -13h168q-35 -217 -50 -307h-67z" />
<glyph unicode="&#x2022;" horiz-adv-x="565" d="M104 765.5q0 82.5 50 133t133.5 50.5t132.5 -48t49 -133t-49 -132.5t-133 -47.5t-133.5 47.5t-49.5 130z" />
<glyph unicode="&#x202f;" horiz-adv-x="449" />
<glyph unicode="&#x2039;" horiz-adv-x="561" d="M78 576v128l388 452v-200l-276 -315l276 -317v-200z" />
<glyph unicode="&#x203a;" horiz-adv-x="561" d="M78 124v200l276 317l-276 315v200l388 -452v-128z" />
<glyph unicode="&#x205f;" horiz-adv-x="561" />
<glyph unicode="&#x20ac;" horiz-adv-x="1096" d="M41 695v89h122v132h-122v89h122v215q0 525 437 525q404 0 404 -525v-70h-145v104q0 270 -135 342q-51 27 -128 27q-159 0 -220 -101.5t-61 -267.5v-249h268v-89h-268v-132h268v-89h-268v-230q0 -272 147 -343q57 -27 134 -27q149 0 206 102t57 268v118h145v-84 q0 -296 -124 -425q-98 -101 -280 -101q-285 0 -382 217q-55 124 -55 309v196h-122z" />
<glyph unicode="&#x2122;" horiz-adv-x="1399" d="M57 1364v77h426v-77h-164v-678h-99v678h-163zM646 686v755h163l148 -539l163 539h150v-755h-89v724l-201 -724h-47l-200 714v-714h-87z" />
<glyph unicode="&#xe000;" horiz-adv-x="1200" d="M0 0v1200h1200v-1200h-1200z" />
<glyph unicode="&#xfb01;" horiz-adv-x="952" d="M20 1114v84h167v147q-2 20 -0.5 43.5t3 49t8 51t15.5 49.5q18 49 65 81.5t121 32.5t127 -13v-109q-24 6 -65.5 6t-64.5 -10q-42 -18 -50.5 -52t-8.5 -64v-212h492v-1198h-150v1114h-342v-1114h-150v1114h-167zM679 1472v179h150v-179h-150z" />
<glyph unicode="&#xfb02;" horiz-adv-x="989" d="M20 1114v84h167v169q0 175 86.5 230.5t262.5 55.5q86 0 179.5 -16t131.5 -34v-1603h-150v1532l-172 10q-105 0 -146.5 -32.5t-41.5 -131.5v-180h192v-84h-192v-1114h-150v1114h-167z" />
<glyph unicode="&#xfb03;" horiz-adv-x="1449" d="M20 1114v84h167v147q-2 20 -0.5 43.5t3 49t8 51t15.5 49.5q18 49 65 81.5t121 32.5t127 -13v-109q-24 6 -65.5 6t-64.5 -10q-42 -18 -50.5 -52t-8.5 -64v-212h347v147q-2 20 -0.5 43.5t3 49t8 51t15.5 49.5q18 49 65 81.5t121 32.5t127 -13v-109q-24 6 -65.5 6t-64.5 -10 q-42 -18 -50.5 -52t-8.5 -64v-212h492v-1198h-150v1114h-342v-1114h-150v1114h-347v-1114h-150v1114h-167zM1176 1472v179h150v-179h-150z" />
<glyph unicode="&#xfb04;" horiz-adv-x="1486" d="M20 1114v84h167v147q-2 20 -0.5 43.5t3 49t8 51t15.5 49.5q18 49 65 81.5t121 32.5t127 -13v-109q-24 6 -65.5 6t-64.5 -10q-42 -18 -50.5 -52t-8.5 -64v-212h347v169q0 175 92 233q81 53 257 53q86 0 179.5 -16t131.5 -34v-1603h-150v1532l-172 10q-105 0 -146.5 -32.5 t-41.5 -131.5v-180h249v-84h-249v-1114h-150v1114h-347v-1114h-150v1114h-167z" />
</font>
</defs>
</svg>
